<svg width="128" height="128" viewBox="0 0 128 128" fill="none" xmlns="http://www.w3.org/2000/svg">
  <rect width="128" height="128" rx="26" fill="url(#paint0_linear)"/>
  <path d="M110.584 64.9142H99.142C99.142 41.7651 80.173 23 56.7724 23C33.6612 23 14.8716 41.3057 14.4169 64.0026C13.9504 87.2491 33.7856 107 57.2559 107H61.9048C82.5571 107 110.584 89.3684 110.584 64.9142Z" fill="url(#paint1_linear)"/>
  <path d="M77.5826 60.8456C77.5826 64.5463 74.5558 67.5456 70.8222 67.5456C67.0885 67.5456 64.0618 64.5463 64.0618 60.8456C64.0618 57.1448 67.0885 54.1456 70.8222 54.1456C74.5558 54.1456 77.5826 57.1448 77.5826 60.8456Z" fill="#FFF"/>
  <path d="M97.0973 60.8456C97.0973 64.5463 94.0705 67.5456 90.3369 67.5456C86.6032 67.5456 83.5765 64.5463 83.5765 60.8456C83.5765 57.1448 86.6032 54.1456 90.3369 54.1456C94.0705 54.1456 97.0973 57.1448 97.0973 60.8456Z" fill="#FFF"/>
  <defs>
    <linearGradient id="paint0_linear" x1="64" y1="0" x2="64" y2="128" gradientUnits="userSpaceOnUse">
      <stop stop-color="#534BB1"/>
      <stop offset="1" stop-color="#551BF9"/>
    </linearGradient>
    <linearGradient id="paint1_linear" x1="62.5" y1="23" x2="62.5" y2="107" gradientUnits="userSpaceOnUse">
      <stop stop-color="white"/>
      <stop offset="1" stop-color="white" stop-opacity="0.82"/>
    </linearGradient>
  </defs>
</svg>